# xmcd
#
# Track frame offsets: 
#        183
#        3648
#        8835
#        24230
#        35740
#        53858
#        67140
#        77003
#        93773
#        104043
#        105678
#        114693
#        127768
#        147720
#        159643
#        181470
#        192423
#        209515
#        224153
#
# Disc length: 3060 seconds
#
# Revision: 0
# Processed by: cddbd v1.4PL0 Copyright (c) Steve Scherf et al.
# Submitted via: ExactAudioCopy v0.90b4
#
DISCID=1d0bf213
DTITLE=Blind John Davis - MOANIN' THE BLUES
DYEAR=1900
DGENRE=Blues
TTITLE0=Introduction
TTITLE1=It's My Boogie
TTITLE2=When I lost My Baby
TTITLE3=Dippermouth Blues
TTITLE4=Summertime
TTITLE5=Got The World on A String
TTITLE6=Jim Town Blues
TTITLE7=St. James Infirmary
TTITLE8=Pinetop's Boogie
TTITLE9=Little Break-Theme
TTITLE10=Boogie'n 'Roll
TTITLE11=Cow Cow Blues
TTITLE12=Everyday I Got The Blues
TTITLE13=Limehouse Blues
TTITLE14=Moanin' The Blues
TTITLE15=Frankie and Johnnie
TTITLE16=Baby Won't You Please Come Home
TTITLE17=Kansas City
TTITLE18=Good Night My Friends
EXTD=
EXTT0=
EXTT1=
EXTT2=
EXTT3=
EXTT4=
EXTT5=
EXTT6=
EXTT7=
EXTT8=
EXTT9=
EXTT10=
EXTT11=
EXTT12=
EXTT13=
EXTT14=
EXTT15=
EXTT16=
EXTT17=
EXTT18=
PLAYORDER=
